<?xml version="1.0" encoding="UTF-8"?>
<svg width="19px" height="19px" viewBox="0 0 19 19" version="1.1" xmlns="http://www.w3.org/2000/svg" xmlns:xlink="http://www.w3.org/1999/xlink">
    <!-- Generator: Sketch 46.2 (44496) - http://www.bohemiancoding.com/sketch -->
    <title>Shape</title>
    <desc>Created with Sketch.</desc>
    <defs></defs>
    <g id="Profile" stroke="none" stroke-width="1" fill="none" fill-rule="evenodd">
        <g id="Edit-Profile-View-with-Interactions" transform="translate(-204.000000, -588.000000)" fill-rule="nonzero" fill="#FFFFFF">
            <g id="Group-16" transform="translate(180.000000, 525.000000)">
                <path d="M33.5,64.712375 C36.0365,64.712375 36.3373333,64.721875 37.3395833,64.7677917 C39.9140833,64.8849583 41.116625,66.1065 41.2337917,68.662 C41.2797083,69.6634583 41.2884167,69.9642917 41.2884167,72.5007917 C41.2884167,75.0380833 41.2789167,75.338125 41.2337917,76.3395833 C41.1158333,78.8927083 39.9164583,80.116625 37.3395833,80.2337917 C36.3373333,80.2797083 36.0380833,80.2892083 33.5,80.2892083 C30.9635,80.2892083 30.6626667,80.2797083 29.6612083,80.2337917 C27.080375,80.1158333 25.8841667,78.88875 25.767,76.3387917 C25.7210833,75.3373333 25.7115833,75.0372917 25.7115833,72.5 C25.7115833,69.9635 25.721875,69.6634583 25.767,68.6612083 C25.8849583,66.1065 27.0843333,64.8841667 29.6612083,64.767 C30.6634583,64.721875 30.9635,64.712375 33.5,64.712375 L33.5,64.712375 Z M33.5,63 C30.9199583,63 30.5969583,63.0110833 29.583625,63.057 C26.1335417,63.2153333 24.216125,65.1295833 24.0577917,68.5828333 C24.0110833,69.5969583 24,69.9199583 24,72.5 C24,75.0800417 24.0110833,75.4038333 24.057,76.4171667 C24.2153333,79.86725 26.1295833,81.7846667 29.5828333,81.943 C30.5969583,81.9889167 30.9199583,82 33.5,82 C36.0800417,82 36.4038333,81.9889167 37.4171667,81.943 C40.8640833,81.7846667 42.78625,79.8704167 42.9422083,76.4171667 C42.9889167,75.4038333 43,75.0800417 43,72.5 C43,69.9199583 42.9889167,69.5969583 42.943,68.583625 C42.7878333,65.1367083 40.8712083,63.216125 37.4179583,63.0577917 C36.4038333,63.0110833 36.0800417,63 33.5,63 Z M33.5,67.62175 C30.8059583,67.62175 28.62175,69.8059583 28.62175,72.5 C28.62175,75.1940417 30.8059583,77.3790417 33.5,77.3790417 C36.1940417,77.3790417 38.37825,75.1948333 38.37825,72.5 C38.37825,69.8059583 36.1940417,67.62175 33.5,67.62175 Z M33.5,75.6666667 C31.7512083,75.6666667 30.3333333,74.2495833 30.3333333,72.5 C30.3333333,70.7512083 31.7512083,69.3333333 33.5,69.3333333 C35.2487917,69.3333333 36.6666667,70.7512083 36.6666667,72.5 C36.6666667,74.2495833 35.2487917,75.6666667 33.5,75.6666667 Z M38.5714167,66.289375 C37.94125,66.289375 37.430625,66.8 37.430625,67.429375 C37.430625,68.05875 37.94125,68.569375 38.5714167,68.569375 C39.2007917,68.569375 39.710625,68.05875 39.710625,67.429375 C39.710625,66.8 39.2007917,66.289375 38.5714167,66.289375 Z" id="Shape"></path>
            </g>
        </g>
    </g>
</svg>