<?xml version="1.0" encoding="UTF-8"?>
<svg width="39px" height="35px" viewBox="0 0 39 35" version="1.1" xmlns="http://www.w3.org/2000/svg" xmlns:xlink="http://www.w3.org/1999/xlink">
    <!-- Generator: Sketch 46.2 (44496) - http://www.bohemiancoding.com/sketch -->
    <title>Shape</title>
    <desc>Created with Sketch.</desc>
    <defs></defs>
    <g id="Profile" stroke="none" stroke-width="1" fill="none" fill-rule="evenodd">
        <g id="Edit-Profile-View-with-Interactions" transform="translate(-701.000000, -238.000000)" fill-rule="nonzero" fill="#FFFFFF">
            <path d="M704,238 C702.35531,238 701,239.35531 701,241 L701,270 C701,271.6447 702.35531,273 704,273 L736.999995,273 C738.644685,273 739.999994,271.6447 739.999994,270 L739.999994,241 C739.999994,239.35531 738.644685,238 736.999995,238 L704,238 Z M704,240 L736.999995,240 C737.57128,240 737.999995,240.428715 737.999995,241 L737.999995,261.578152 L731.703121,255.281253 C731.323066,254.904953 730.628966,254.920053 730.265621,255.312253 L723.968747,262.046852 L714.203123,252.281248 C713.992008,252.073408 713.685048,251.967153 713.390623,251.999998 C713.183213,252.021948 712.983398,252.110748 712.828123,252.249998 L703,261.218752 L703,241 C703,240.428715 703.428715,240 704,240 Z M723.499997,241.999999 C720.750417,241.999999 718.499998,244.250419 718.499998,246.999999 C718.499998,249.749573 720.750417,251.999998 723.499997,251.999998 C726.249576,251.999998 728.499996,249.749573 728.499996,246.999999 C728.499996,244.250419 726.249576,241.999999 723.499997,241.999999 Z M723.499997,243.999999 C725.168697,243.999999 726.499996,245.331299 726.499996,246.999999 C726.499996,248.668693 725.168697,249.999998 723.499997,249.999998 C721.831297,249.999998 720.499997,248.668693 720.499997,246.999999 C720.499997,245.331299 721.831297,243.999999 723.499997,243.999999 Z M713.468748,254.499998 L723.296872,264.328096 C723.676927,264.704396 724.371027,264.689296 724.734372,264.297096 L731.031246,257.562497 L737.999995,264.531246 L737.999995,270.124995 C737.999995,270.696295 737.57128,271.124995 736.999995,271.124995 L704,271.124995 C703.428715,271.124995 703,270.696295 703,270.124995 L703,264.062496 L713.468748,254.499998 Z" id="Shape"></path>
        </g>
    </g>
</svg>