<?xml version="1.0" encoding="UTF-8"?>
<svg width="45px" height="45px" viewBox="0 0 45 45" version="1.1" xmlns="http://www.w3.org/2000/svg" xmlns:xlink="http://www.w3.org/1999/xlink">
    <!-- Generator: Sketch 46.2 (44496) - http://www.bohemiancoding.com/sketch -->
    <title>Shape</title>
    <desc>Created with Sketch.</desc>
    <defs></defs>
    <g id="Profile" stroke="none" stroke-width="1" fill="none" fill-rule="evenodd">
        <g id="Edit-Profile-View" transform="translate(-877.000000, -1874.000000)" fill-rule="nonzero" fill="#BECAE3">
            <g id="Group-20" transform="translate(189.000000, 1097.000000)">
                <g id="Group-17">
                    <path d="M708.424619,821.931947 C704.161171,821.508656 700.322952,820.02195 696.958787,817.490745 C691.860642,813.65489 688.694163,807.9606 688.077209,801.51899 C687.93272,800.010347 687.995615,797.784982 688.227487,796.20222 C689.343104,788.586859 694.356837,782.011218 701.423793,778.894924 C703.200844,778.111301 705.297693,777.505669 707.198055,777.227143 C709.264391,776.924286 711.736008,776.924286 713.802345,777.227143 C721.415896,778.343025 727.989974,783.35795 731.105528,790.426586 C731.888962,792.204059 732.494452,794.301407 732.772914,796.20222 C733.075695,798.269048 733.075695,800.741252 732.772914,802.80808 C731.915197,808.662968 728.713531,814.016018 723.945851,817.566548 C720.597126,820.060373 716.75831,821.526731 712.513561,821.93347 C711.580835,822.022846 709.331705,822.022007 708.424619,821.931947 L708.424619,821.931947 Z M716.746329,801.994433 L716.746329,795.600391 L717.624691,795.600391 L718.503053,795.600391 L718.503053,794.404559 L718.503053,793.208726 L710.475801,793.208726 L702.448549,793.208726 L702.448549,794.404559 L702.448549,795.600391 L703.278113,795.600391 L704.107677,795.600391 L704.107677,801.994433 L704.107677,808.388476 L710.427003,808.388476 L716.746329,808.388476 L716.746329,801.994433 Z M706.157188,800.945029 L706.157188,795.551582 L707.03555,795.551582 L707.913912,795.551582 L707.913912,800.945029 L707.913912,806.338477 L707.03555,806.338477 L706.157188,806.338477 L706.157188,800.945029 Z M709.621838,800.945029 L709.621838,795.551582 L710.5002,795.551582 L711.378562,795.551582 L711.378562,800.945029 L711.378562,806.338477 L710.5002,806.338477 L709.621838,806.338477 L709.621838,800.945029 Z M713.03769,800.945029 L713.03769,795.551582 L713.867254,795.551582 L714.696818,795.551582 L714.696818,800.945029 L714.696818,806.338477 L713.867254,806.338477 L713.03769,806.338477 L713.03769,800.945029 Z M714.745616,790.475395 L714.745616,789.401587 L710.5002,789.401587 L706.254784,789.401587 L706.254784,790.475395 L706.254784,791.549204 L710.5002,791.549204 L714.745616,791.549204 L714.745616,790.475395 Z" id="Shape"></path>
                </g>
            </g>
        </g>
    </g>
</svg>