<?xml version="1.0" encoding="UTF-8"?>
<svg width="26px" height="26px" viewBox="0 0 26 26" version="1.1" xmlns="http://www.w3.org/2000/svg" xmlns:xlink="http://www.w3.org/1999/xlink">
    <!-- Generator: Sketch 46.2 (44496) - http://www.bohemiancoding.com/sketch -->
    <title>Combined Shape</title>
    <desc>Created with Sketch.</desc>
    <defs></defs>
    <g id="Symbols" stroke="none" stroke-width="1" fill="none" fill-rule="evenodd">
        <g id="profile__experience-item" transform="translate(-133.000000, 0.000000)" fill-rule="nonzero" fill="#72D371">
            <path d="M146,26 C138.820298,26 133,20.1797017 133,13 C133,5.82029825 138.820298,0 146,0 C153.179702,0 159,5.82029825 159,13 L159,26 L146,26 Z M146,23.2631579 L156.263158,23.2631579 L156.263158,13 C156.263158,7.33181441 151.668186,2.73684211 146,2.73684211 C140.331814,2.73684211 135.736842,7.33181441 135.736842,13 C135.736842,18.6681856 140.331814,23.2631579 146,23.2631579 Z M137.813049,12.5687052 L140.50274,12.0628738 C141.223705,15.8965082 143.10345,17.6858286 146.384131,17.7866304 C148.455962,17.8502892 149.940998,16.8476083 151.024408,15.0348256 C151.413005,14.384618 151.716905,13.6777246 151.941996,12.9700762 C152.075541,12.5502296 152.150979,12.2335399 152.179141,12.0755909 L154.873491,12.555988 C154.825407,12.8256707 154.722582,13.2573362 154.550078,13.7996606 C154.265086,14.6956307 153.879576,15.5923557 153.373663,16.4388586 C151.821363,19.0361955 149.475994,20.6197642 146.300079,20.5221815 C141.670894,20.3799457 138.761166,17.6101884 137.813049,12.5687052 Z" id="Combined-Shape"></path>
        </g>
    </g>
</svg>