<?xml version="1.0" encoding="UTF-8"?>
<svg width="13px" height="17px" viewBox="0 0 13 17" version="1.1" xmlns="http://www.w3.org/2000/svg" xmlns:xlink="http://www.w3.org/1999/xlink">
    <!-- Generator: Sketch 46.2 (44496) - http://www.bohemiancoding.com/sketch -->
    <title>?</title>
    <desc>Created with Sketch.</desc>
    <defs></defs>
    <g id="Profile" stroke="none" stroke-width="1" fill="none" fill-rule="evenodd">
        <g id="Edit-Profile-View-with-Interactions" transform="translate(-1151.000000, -250.000000)" fill="#BECAE3">
            <g id="Group-11" transform="translate(1114.000000, 55.000000)">
                <path d="M40.4952432,205.620162 L40.4952432,205.552946 C40.4952432,205.13471 40.5587246,204.753821 40.6856892,204.41027 C40.8126538,204.066719 40.9806926,203.749312 41.1898108,203.458041 C41.398929,203.166769 41.626715,202.894172 41.8731757,202.640243 C42.1196363,202.386314 42.3698275,202.147325 42.6237567,201.92327 C42.982245,201.579719 43.2996517,201.258578 43.5759865,200.959838 C43.8523212,200.661098 43.9904865,200.347425 43.9904865,200.018811 C43.9904865,199.705134 43.9232709,199.481082 43.7888378,199.346649 C43.6544047,199.212216 43.4452897,199.145 43.1614865,199.145 C42.8627462,199.145 42.6162892,199.271963 42.4221081,199.525892 C42.2279269,199.779821 42.0934958,200.145772 42.0188108,200.623757 L37,200.623757 C37.014937,199.682725 37.1904443,198.857467 37.526527,198.147959 C37.8626098,197.438451 38.321916,196.852182 38.9044595,196.389135 C39.4870029,195.926088 40.1778293,195.578807 40.9769594,195.347284 C41.7760896,195.11576 42.6536258,195 43.6095946,195 C44.5207523,195 45.349744,195.089621 46.0965946,195.268865 C46.8434451,195.448109 47.4745244,195.720705 47.9898513,196.086662 C48.5051782,196.452619 48.9047373,196.919394 49.1885405,197.487 C49.4723437,198.054606 49.6142432,198.719293 49.6142432,199.481081 C49.6142432,200.168184 49.4910147,200.765655 49.244554,201.273513 C48.9980933,201.781372 48.6732182,202.236944 48.2699189,202.640243 C47.9711786,202.938983 47.6687087,203.215314 47.3625,203.469243 C47.0562912,203.723172 46.7687581,203.969629 46.4998918,204.208622 C46.2310256,204.447614 45.9957712,204.682868 45.7941216,204.914392 C45.5924719,205.145916 45.4543066,205.38117 45.3796216,205.620162 L40.4952432,205.620162 Z M45.6036756,209.989216 C45.4543055,210.302893 45.2489247,210.579224 44.987527,210.818216 C44.7261293,211.057208 44.4236593,211.243918 44.0801081,211.378351 C43.7365568,211.512784 43.3631371,211.58 42.9598378,211.58 C42.5565385,211.58 42.1756504,211.512784 41.8171621,211.378351 C41.4586739,211.243918 41.1487355,211.057208 40.8873378,210.818216 C40.6259401,210.579224 40.4205593,210.299159 40.2711892,209.978013 C40.1218191,209.656868 40.0471351,209.317056 40.0471351,208.958568 C40.0471351,208.600079 40.1218191,208.260267 40.2711892,207.939122 C40.4205593,207.617976 40.6259401,207.337911 40.8873378,207.098919 C41.1487355,206.859927 41.4586739,206.669483 41.8171621,206.527581 C42.1756504,206.385679 42.5565385,206.31473 42.9598378,206.31473 C43.3631371,206.31473 43.7365568,206.385679 44.0801081,206.527581 C44.4236593,206.669483 44.7261293,206.859927 44.987527,207.098919 C45.2489247,207.337911 45.4543055,207.617976 45.6036756,207.939122 C45.7530458,208.260267 45.8277297,208.600079 45.8277297,208.958568 C45.8277297,209.317056 45.7530458,209.660602 45.6036756,209.989216 Z" id="?"></path>
            </g>
        </g>
    </g>
</svg>