<?xml version="1.0" encoding="UTF-8"?>
<svg width="24px" height="24px" viewBox="0 0 24 24" version="1.1" xmlns="http://www.w3.org/2000/svg" xmlns:xlink="http://www.w3.org/1999/xlink">
    <!-- Generator: Sketch 46.2 (44496) - http://www.bohemiancoding.com/sketch -->
    <title>Shape</title>
    <desc>Created with Sketch.</desc>
    <defs></defs>
    <g id="Profile" stroke="none" stroke-width="1" fill="none" fill-rule="evenodd">
        <g id="User-View-w/Interactions" transform="translate(-963.000000, -639.000000)" fill-rule="nonzero" fill="#498DF0">
            <g id="Group-20" transform="translate(933.000000, 447.000000)">
                <g id="Group-19" transform="translate(0.000000, 19.000000)">
                    <g id="Group-15" transform="translate(29.000000, 0.000000)">
                        <path d="M22.921,175.081 C25.692,177.853 25.692,182.35 22.921,185.123 L19.081,188.962 L16.96,186.84 L20.799,183 C22.398,181.402 22.398,178.801 20.798,177.203 C19.2,175.604 16.599,175.604 15.001,177.202 L11.161,181.041 L9.04,178.92 L12.88,175.081 C15.651,172.308 20.147,172.308 22.921,175.081 Z M14.839,188.96 L10.999,192.799 C9.401,194.399 6.8,194.398 5.2,192.799 C3.602,191.201 3.602,188.599 5.2,187.002 L9.04,183.162 L6.919,181.041 L3.079,184.881 C0.308,187.653 0.307,192.149 3.079,194.922 C5.852,197.694 10.349,197.695 13.12,194.922 L16.96,191.082 L14.839,188.96 Z" id="Shape"></path>
                    </g>
                </g>
            </g>
        </g>
    </g>
</svg>