<?xml version="1.0" encoding="UTF-8"?>
<svg width="13px" height="15px" viewBox="0 0 13 15" version="1.1" xmlns="http://www.w3.org/2000/svg" xmlns:xlink="http://www.w3.org/1999/xlink">
    <!-- Generator: Sketch 46.2 (44496) - http://www.bohemiancoding.com/sketch -->
    <title>Shape</title>
    <desc>Created with Sketch.</desc>
    <defs></defs>
    <g id="Profile" stroke="none" stroke-width="1" fill="none" fill-rule="evenodd">
        <g id="Edit-Profile-View" transform="translate(-653.000000, -3528.000000)" fill-rule="nonzero" fill="#529AEF">
            <g id="Group-15" transform="translate(183.000000, 3271.000000)">
                <g id="Group-13" transform="translate(322.000000, 253.000000)">
                    <path d="M160,10.75 L159.25,10.75 L159.25,8.875 C159.25,6.175 157.075,4 154.375,4 C151.675,4 149.5,6.175 149.5,8.875 L149.5,10.75 L148.75,10.75 C148.3375,10.75 148,11.0875 148,11.5 L148,18.25 C148,18.6625 148.3375,19 148.75,19 L160,19 C160.4125,19 160.75,18.6625 160.75,18.25 L160.75,11.5 C160.75,11.0875 160.4125,10.75 160,10.75 Z M151,8.875 C151,7 152.5,5.5 154.375,5.5 C156.25,5.5 157.75,7 157.75,8.875 L157.75,10.75 L151,10.75 L151,8.875 Z" id="Shape"></path>
                </g>
            </g>
        </g>
    </g>
</svg>