<?xml version="1.0" encoding="UTF-8"?>
<svg width="138px" height="40px" viewBox="0 0 138 40" version="1.1" xmlns="http://www.w3.org/2000/svg" xmlns:xlink="http://www.w3.org/1999/xlink">
    <!-- Generator: Sketch 46.2 (44496) - http://www.bohemiancoding.com/sketch -->
    <title>Group 23</title>
    <desc>Created with Sketch.</desc>
    <defs></defs>
    <g id="Profile" stroke="none" stroke-width="1" fill="none" fill-rule="evenodd">
        <g id="User-View-with-Menu" transform="translate(-51.000000, -36.000000)" fill-rule="nonzero" fill="#FFFFFF">
            <g id="Group-23" transform="translate(51.000000, 36.000000)">
                <g id="Group-Copy" transform="translate(48.000000, 8.000000)">
                    <path d="M17.867402,18.8912385 L17.867402,11.7982456 C17.867402,9.83187135 17.2031863,8.14640769 15.9411765,6.74185464 C14.6791667,5.33730159 13.085049,4.63502506 11.2916667,4.63502506 C9.43186275,4.63502506 7.90416667,5.33730159 6.57573529,6.74185464 C5.31372549,8.14640769 4.6495098,9.83187135 4.6495098,11.7982456 C4.6495098,13.7646199 5.31372549,15.3798559 6.57573529,16.7844089 C7.8377451,18.188962 9.43186275,18.8912385 11.2916667,18.8912385 L17.867402,18.8912385 Z M22.5833333,11.7982456 L22.5833333,23.5964912 L11.2916667,23.5964912 C8.23627451,23.5964912 5.57941176,22.4728488 3.32107843,20.1553363 C1.12916667,17.8378237 0,15.0989453 0,11.7982456 C0,8.5677736 1.12916667,5.7586675 3.32107843,3.44115497 C5.5129902,1.12364244 8.16985294,0 11.2916667,0 C14.3470588,0 17.0703431,1.12364244 19.2622549,3.44115497 C21.5205882,5.7586675 22.5833333,8.5677736 22.5833333,11.7982456 L22.5833333,11.7982456 Z" id="Fill-1"></path>
                    <path d="M36.625,19.2142857 C38.4710784,19.2142857 39.9875,18.5 41.2401961,17.0714286 C42.4928922,15.6428571 43.1522059,14 43.1522059,12 C43.1522059,10 42.4928922,8.28571429 41.2401961,6.85714286 C39.9875,5.42857143 38.4051471,4.71428571 36.625,4.71428571 C34.7789216,4.71428571 33.2625,5.42857143 32.0098039,6.85714286 C30.7571078,8.28571429 30.0977941,10 30.0977941,12 L30.0977941,19.2142857 L36.625,19.2142857 Z M28.7132353,28.5 C27.7901961,29.5 26.7352941,30 25.4166667,30 L25.4166667,12 C25.4166667,8.71428571 26.5375,5.85714286 28.7132353,3.5 C30.8889706,1.14285714 33.5262255,0 36.625,0 C39.6578431,0 42.295098,1.14285714 44.5367647,3.5 C46.7784314,5.85714286 47.8333333,8.71428571 47.8333333,12 C47.8333333,15.2857143 46.7125,18.1428571 44.5367647,20.5 C42.3610294,22.8571429 39.6578431,24 36.625,24 L30.0318627,24 L30.0318627,24.9285714 C30.0977941,26.3571429 29.6362745,27.5 28.7132353,28.5 L28.7132353,28.5 Z" id="Fill-2"></path>
                    <path d="M63.7916667,19.2142857 C65.6514706,19.2142857 67.1791667,18.5 68.4411765,17.0714286 C69.7031863,15.6428571 70.367402,14 70.367402,12 C70.367402,10 69.7031863,8.28571429 68.4411765,6.85714286 C67.1791667,5.42857143 65.585049,4.71428571 63.7916667,4.71428571 C61.9318627,4.71428571 60.4041667,5.42857143 59.1421569,6.85714286 C57.8801471,8.28571429 57.2159314,10 57.2159314,12 L57.2159314,19.2142857 L63.7916667,19.2142857 Z M55.8210784,28.5 C54.8911765,29.5 53.8284314,30 52.5,30 L52.5,12 C52.5,8.71428571 53.6291667,5.85714286 55.8210784,3.5 C58.0129902,1.14285714 60.6698529,0 63.7916667,0 C66.8470588,0 69.5039216,1.14285714 71.7622549,3.5 C74.0205882,5.85714286 75.0833333,8.71428571 75.0833333,12 C75.0833333,15.2857143 73.9541667,18.1428571 71.7622549,20.5 C69.5703431,22.8571429 66.8470588,24 63.7916667,24 L57.1495098,24 L57.1495098,24.9285714 C57.1495098,26.3571429 56.6845588,27.5 55.8210784,28.5 L55.8210784,28.5 Z" id="Fill-3"></path>
                    <path d="M79.4143192,22.1217105 C78.5269953,21.1385234 78.0833333,20.014881 78.0833333,18.6103279 L78.0833333,0 C79.2875587,0 80.3650235,0.491593567 81.2523474,1.4747807 C82.1396714,2.45796784 82.5833333,3.58161028 82.5833333,4.98616332 L82.5833333,23.5964912 C81.379108,23.5964912 80.3016432,23.1048977 79.4143192,22.1217105 Z" id="Fill-4"></path>
                    <path d="M90,23.5964912 C88.7957746,23.5964912 87.7183099,23.1048977 86.8309859,22.1217105 C85.943662,21.1385234 85.5,20.014881 85.5,18.6103279 L85.5,0 C86.7042254,0 87.7816901,0.491593567 88.6690141,1.4747807 C89.556338,2.45796784 90,3.58161028 90,4.98616332 L90,23.5964912" id="Fill-5"></path>
                </g>
                <path d="M19,40 C8.50658975,40 0,31.045695 0,20 C0,8.954305 8.50658975,0 19,0 C29.4934102,0 38,8.954305 38,20 L38,40 L19,40 Z M19,35.7894737 L34,35.7894737 L34,20 C34,11.2797145 27.2842712,4.21052632 19,4.21052632 C10.7157288,4.21052632 4,11.2797145 4,20 C4,28.7202855 10.7157288,35.7894737 19,35.7894737 Z M7.03445636,19.3364695 L10.9655436,18.5582673 C12.0192614,24.4561665 14.7665808,27.208967 19.5614228,27.3640467 C22.5894823,27.4619833 24.75992,25.9193973 26.3433661,23.1305009 C26.9113154,22.1301815 27.3554772,21.0426532 27.6844554,19.9539634 C27.8796376,19.3080455 27.9898919,18.8208306 28.0310517,18.5778322 L31.9689483,19.3169046 C31.8986719,19.731801 31.748389,20.3959019 31.4962683,21.2302471 C31.0797414,22.6086626 30.5163029,23.9882395 29.7768917,25.2905517 C27.508146,29.2864546 24.0802983,31.7227142 19.4385772,31.5725869 C12.6728457,31.3537627 8.42016506,27.0925976 7.03445636,19.3364695 Z" id="Combined-Shape-Copy"></path>
            </g>
        </g>
    </g>
</svg>