<?xml version="1.0" encoding="UTF-8"?>
<svg width="28px" height="24px" viewBox="0 0 28 24" version="1.1" xmlns="http://www.w3.org/2000/svg" xmlns:xlink="http://www.w3.org/1999/xlink">
    <!-- Generator: Sketch 46.2 (44496) - http://www.bohemiancoding.com/sketch -->
    <title>Shape</title>
    <desc>Created with Sketch.</desc>
    <defs></defs>
    <g id="Additions" stroke="none" stroke-width="1" fill="none" fill-rule="evenodd">
        <g id="Profile-with-Additions-View" transform="translate(-1147.000000, -344.000000)" fill-rule="nonzero" fill="#EDE256">
            <g id="Group-22" transform="translate(1147.000000, 327.000000)">
                <path d="M27.3,25.26 L20.4866667,25.26 L20.4866667,17.7 C20.4866667,17.3266667 20.16,17 19.7866667,17 L8.21333333,17 C7.84,17 7.51333333,17.3266667 7.51333333,17.7 L7.51333333,25.26 L0.7,25.26 C0.326666667,25.26 0,25.5866667 0,25.96 L0,39.54 C0,39.9133333 0.326666667,40.24 0.7,40.24 L8.21333333,40.24 L10.6866667,40.24 L17.3133333,40.24 L19.7866667,40.24 L27.3,40.24 C27.6733333,40.24 28,39.9133333 28,39.54 L28,25.96 C28,25.5866667 27.6733333,25.26 27.3,25.26 Z M1.4,36.74 L4.06,36.74 C4.43333333,36.74 4.76,36.4133333 4.76,36.04 C4.76,35.6666667 4.43333333,35.34 4.06,35.34 L1.4,35.34 L1.4,33.4733333 L4.06,33.4733333 C4.43333333,33.4733333 4.76,33.1466667 4.76,32.7733333 C4.76,32.4 4.43333333,32.0733333 4.06,32.0733333 L1.4,32.0733333 L1.4,30.2066667 L4.06,30.2066667 C4.43333333,30.2066667 4.76,29.88 4.76,29.5066667 C4.76,29.1333333 4.43333333,28.8066667 4.06,28.8066667 L1.4,28.8066667 L1.4,26.7066667 L7.51333333,26.7066667 L7.51333333,38.8866667 L1.4,38.8866667 L1.4,36.74 Z M8.91333333,25.96 L8.91333333,18.4 L19.0866667,18.4 L19.0866667,25.96 L19.0866667,38.84 L18.0133333,38.84 L18.0133333,30.2066667 C18.0133333,29.8333333 17.6866667,29.5066667 17.3133333,29.5066667 L10.6866667,29.5066667 C10.3133333,29.5066667 9.98666667,29.8333333 9.98666667,30.2066667 L9.98666667,38.84 L8.91333333,38.84 L8.91333333,25.96 Z M11.3866667,38.84 L11.3866667,30.9066667 L16.6133333,30.9066667 L16.6133333,38.84 L11.3866667,38.84 Z M20.4866667,38.84 L20.4866667,26.66 L26.6,26.66 L26.6,28.76 L23.7066667,28.76 C23.3333333,28.76 23.0066667,29.0866667 23.0066667,29.46 C23.0066667,29.8333333 23.3333333,30.16 23.7066667,30.16 L26.6,30.16 L26.6,32.0266667 L23.7066667,32.0266667 C23.3333333,32.0266667 23.0066667,32.3533333 23.0066667,32.7266667 C23.0066667,33.1 23.3333333,33.4266667 23.7066667,33.4266667 L26.6,33.4266667 L26.6,35.2933333 L23.7066667,35.2933333 C23.3333333,35.2933333 23.0066667,35.62 23.0066667,35.9933333 C23.0066667,36.3666667 23.3333333,36.6933333 23.7066667,36.6933333 L26.6,36.6933333 L26.6,38.7933333 L20.4866667,38.7933333 L20.4866667,38.84 Z M11.0133333,24.2333333 L16.9866667,24.2333333 C17.36,24.2333333 17.6866667,23.9066667 17.6866667,23.5333333 L17.6866667,20.78 C17.6866667,20.4066667 17.36,20.08 16.9866667,20.08 L11.0133333,20.08 C10.64,20.08 10.3133333,20.4066667 10.3133333,20.78 L10.3133333,23.5333333 C10.3133333,23.9533333 10.64,24.2333333 11.0133333,24.2333333 Z M11.7133333,21.48 L16.2866667,21.48 L16.2866667,22.8333333 L11.7133333,22.8333333 L11.7133333,21.48 L11.7133333,21.48 Z" id="Shape"></path>
            </g>
        </g>
    </g>
</svg>