<?xml version="1.0" encoding="UTF-8"?>
<svg width="23px" height="21px" viewBox="0 0 23 21" version="1.1" xmlns="http://www.w3.org/2000/svg" xmlns:xlink="http://www.w3.org/1999/xlink">
    <!-- Generator: Sketch 46.2 (44496) - http://www.bohemiancoding.com/sketch -->
    <title>Shape</title>
    <desc>Created with Sketch.</desc>
    <defs></defs>
    <g id="Profile" stroke="none" stroke-width="1" fill="none" fill-rule="evenodd">
        <g id="Edit-Profile-View-with-Interactions" transform="translate(-1146.000000, -194.000000)" fill-rule="nonzero" fill="#7F8DAA">
            <g id="Group-11" transform="translate(1114.000000, 55.000000)">
                <path d="M54.6153846,151.4278 L54.6153846,147.5722 L50.8828769,147.5722 C50.7087385,146.9764 50.4567385,146.4118 50.1346308,145.8871 L52.7719077,143.4382 L49.8357846,140.7118 L47.1972154,143.1607 C46.6321538,142.8616 46.0241231,142.6276 45.3837846,142.4647 L45.3837846,139 L41.2316,139 L41.2316,142.4647 C40.5912615,142.6276 39.9819385,142.8616 39.4165538,143.1607 L36.7792769,140.7118 L33.8431538,143.4382 L36.4804308,145.8871 C36.158,146.4118 35.9063231,146.9764 35.7308923,147.5722 L32,147.5722 L32,151.4278 L35.7312154,151.4278 C35.9066462,152.0236 36.1586462,152.5882 36.4807538,153.1129 L33.8434769,155.5618 L36.7796,158.287 L39.4168769,155.8393 C39.9822615,156.1384 40.5899692,156.3724 41.2319231,156.5353 L41.2319231,160 L45.3841077,160 L45.3841077,156.5353 C46.0244462,156.3724 46.6337692,156.1384 47.1991538,155.8393 L49.8364308,158.287 L52.7725538,155.5618 L50.1352769,153.1129 C50.4577077,152.5882 50.7093846,152.0236 50.8835231,151.4278 L54.6153846,151.4278 Z M43.8461538,154 C41.4667732,154 39.5384615,152.209425 39.5384615,150 C39.5384615,147.790575 41.4667732,146 43.8461538,146 C46.2241789,146 48.1538462,147.790575 48.1538462,150 C48.1538462,152.209425 46.2241789,154 43.8461538,154 Z" id="Shape"></path>
            </g>
        </g>
    </g>
</svg>