<?xml version="1.0" encoding="UTF-8"?>
<svg width="21px" height="18px" viewBox="0 0 21 18" version="1.1" xmlns="http://www.w3.org/2000/svg" xmlns:xlink="http://www.w3.org/1999/xlink">
    <!-- Generator: Sketch 46.2 (44496) - http://www.bohemiancoding.com/sketch -->
    <title>Shape</title>
    <desc>Created with Sketch.</desc>
    <defs></defs>
    <g id="Profile" stroke="none" stroke-width="1" fill="none" fill-rule="evenodd">
        <g id="Edit-Profile-View-with-Interactions" transform="translate(-210.000000, -537.000000)" fill-rule="nonzero" fill="#FFFFFF">
            <g id="Group-16" transform="translate(180.000000, 525.000000)">
                <g id="Group-25" transform="translate(30.000000, 12.000000)">
                    <path d="M1.60973764,0.344718059 C0.749290784,0.344718059 0.0402378775,0.999228434 0.0402378775,1.79348707 L0.0402378775,15.7982566 C0.0402378775,16.59252 0.749290784,17.2470256 1.60973764,17.2470256 L18.874235,17.2470256 C19.7346819,17.2470256 20.4437348,16.59252 20.4437348,15.7982566 L20.4437348,1.79348707 C20.4437348,0.999228434 19.7346819,0.344718059 18.874235,0.344718059 L1.60973764,0.344718059 Z M1.60973764,1.31056406 L18.874235,1.31056406 C19.1731122,1.31056406 19.3974016,1.5176004 19.3974016,1.79348707 L19.3974016,11.7311515 L16.103087,8.69023362 C15.9042549,8.50850969 15.541125,8.51580183 15.351035,8.70520423 L12.0567204,11.9574975 L6.94767172,7.2414622 C6.8372234,7.14109148 6.67663219,7.0897785 6.52259887,7.1056401 C6.41408888,7.11624026 6.30955235,7.15912382 6.22831766,7.22637085 L1.08657105,11.557589 L1.08657105,1.79348707 C1.08657105,1.5176004 1.31086041,1.31056406 1.60973764,1.31056406 Z M11.8114861,2.27641007 C10.3729977,2.27641007 9.19565314,3.36318966 9.19565314,4.69102509 C9.19565314,6.0188581 10.3729977,7.1056401 11.8114861,7.1056401 C13.2499745,7.1056401 14.427319,6.0188581 14.427319,4.69102509 C14.427319,3.36318966 13.2499745,2.27641007 11.8114861,2.27641007 Z M11.8114861,3.24225608 C12.6844942,3.24225608 13.3809858,3.88517147 13.3809858,4.69102509 C13.3809858,5.49687629 12.6844942,6.1397941 11.8114861,6.1397941 C10.938478,6.1397941 10.2419863,5.49687629 10.2419863,4.69102509 C10.2419863,3.88517147 10.938478,3.24225608 11.8114861,3.24225608 Z M6.56347125,8.31294761 L11.7052179,13.0591632 C11.9040499,13.2408871 12.2671799,13.233595 12.4572698,13.0441926 L15.7515844,9.79189931 L19.3974016,13.157269 L19.3974016,15.8586195 C19.3974016,16.1345134 19.1731122,16.3415425 18.874235,16.3415425 L1.60973764,16.3415425 C1.31086041,16.3415425 1.08657105,16.1345134 1.08657105,15.8586195 L1.08657105,12.9308988 L6.56347125,8.31294761 Z" id="Shape"></path>
                </g>
            </g>
        </g>
    </g>
</svg>