<?xml version="1.0" encoding="UTF-8"?>
<svg width="18px" height="21px" viewBox="0 0 18 21" version="1.1" xmlns="http://www.w3.org/2000/svg" xmlns:xlink="http://www.w3.org/1999/xlink">
    <!-- Generator: Sketch 46.2 (44496) - http://www.bohemiancoding.com/sketch -->
    <title>Shape</title>
    <desc>Created with Sketch.</desc>
    <defs></defs>
    <g id="Additions" stroke="none" stroke-width="1" fill="none" fill-rule="evenodd">
        <g id="Profile-with-Additions-View" transform="translate(-1149.000000, -286.000000)" fill-rule="nonzero" fill="#9498A1">
            <path d="M1150.95523,291.622857 L1155.25261,291.622857 C1156.33193,291.624038 1157.20657,292.442665 1157.20783,293.452857 L1157.20783,298.214285 C1157.21048,298.558322 1157.02993,298.881008 1156.72629,299.074915 C1156.42265,299.268822 1156.03578,299.308491 1155.69448,299.180714 L1155.25261,306.395713 C1155.23078,306.735607 1154.92957,307.000612 1154.56576,306.999999 L1151.62834,306.999999 C1151.26453,307.000612 1150.96332,306.735607 1150.94149,306.395713 L1150.51336,299.176428 C1150.1728,299.302787 1149.7875,299.263093 1149.48446,299.070433 C1149.18143,298.877774 1149,298.557157 1149,298.214285 L1149,293.452857 C1149.00126,292.442665 1149.87591,291.624038 1150.95523,291.622857 Z M1153.10048,290.525714 C1154.43454,290.520984 1155.51239,289.505784 1155.50902,288.257164 C1155.50566,287.008545 1154.42235,285.998447 1153.08828,286.000018 C1151.75422,286.001589 1150.67363,287.014233 1150.67362,288.262857 C1150.67362,288.864492 1150.92959,289.441361 1151.38498,289.865977 C1151.84037,290.290592 1152.45768,290.527993 1153.10048,290.525714 L1153.10048,290.525714 Z M1158.79674,293.452857 L1158.79674,298.214285 C1158.79523,298.557915 1158.97603,298.879844 1159.27931,299.073518 C1159.58259,299.267193 1159.96879,299.307356 1160.3101,299.180714 L1160.74739,306.395713 C1160.76922,306.735607 1161.07043,307.000612 1161.43424,306.999999 L1164.37395,306.999999 C1164.73776,307.000612 1165.03897,306.735607 1165.0608,306.395713 L1165.49122,299.176428 C1165.83126,299.302077 1166.21571,299.261959 1166.51783,299.069299 C1166.81994,298.87664 1167.00051,298.556447 1167,298.214285 L1167,293.452857 C1166.99874,292.442665 1166.12409,291.624038 1165.04477,291.622857 L1160.74739,291.622857 C1159.66986,291.626395 1158.798,292.444334 1158.79674,293.452857 Z M1162.89952,290.525714 C1164.23478,290.525714 1165.31722,289.512598 1165.31722,288.262857 C1165.31722,287.013116 1164.23478,286 1162.89952,286 C1161.56425,286 1160.48181,287.013116 1160.48181,288.262857 C1160.48181,289.512598 1161.56425,290.525714 1162.89952,290.525714 Z" id="Shape"></path>
        </g>
    </g>
</svg>