<?xml version="1.0" encoding="UTF-8"?>
<svg width="22px" height="20px" viewBox="0 0 22 20" version="1.1" xmlns="http://www.w3.org/2000/svg" xmlns:xlink="http://www.w3.org/1999/xlink">
    <!-- Generator: Sketch 46.2 (44496) - http://www.bohemiancoding.com/sketch -->
    <title>Combined Shape</title>
    <desc>Created with Sketch.</desc>
    <defs></defs>
    <g id="Profile" stroke="none" stroke-width="1" fill="none" fill-rule="evenodd">
        <g id="Edit-Profile-View-with-Interactions" transform="translate(-1147.000000, -142.000000)" fill-rule="nonzero" fill="#72D371">
            <g id="Group-11" transform="translate(1114.000000, 55.000000)">
                <path d="M43.5161972,107 C37.7082619,107 33,102.522847 33,97 C33,91.4771525 37.7082619,87 43.5161972,87 C49.3241325,87 54.0323944,91.4771525 54.0323944,97 L54.0323944,107 L43.5161972,107 Z M43.5161972,104.894737 L51.8184581,104.894737 L51.8184581,97 C51.8184581,92.6398572 48.1014093,89.1052632 43.5161972,89.1052632 C38.9309851,89.1052632 35.2139363,92.6398572 35.2139363,97 C35.2139363,101.360143 38.9309851,104.894737 43.5161972,104.894737 Z M36.8934595,96.6682348 L39.0692536,96.2791337 C39.6524697,99.2280833 41.1730671,100.604484 43.8269357,100.682023 C45.5029184,100.730992 46.7042211,99.9596987 47.5806333,98.5652504 C47.8949842,98.0650908 48.1408207,97.5213266 48.3229048,96.9769817 C48.4309351,96.6540227 48.4919591,96.4104153 48.5147404,96.2889161 L50.6943034,96.6584523 C50.6554065,96.8659005 50.5722274,97.1979509 50.4326825,97.6151236 C50.2021416,98.3043313 49.8902873,98.9941198 49.481035,99.6452759 C48.2253204,101.643227 46.3280613,102.861357 43.7589427,102.786293 C40.0142181,102.676881 37.6604272,100.546299 36.8934595,96.6682348 Z" id="Combined-Shape"></path>
            </g>
        </g>
    </g>
</svg>